PathFileType	3	(X/Y/Z)	E:\ViconData\BIOM9541 2025\Week 7\Wed1100\Hanif  deep squat 2-5 Squat 01.trc
DataRate	CameraRate	NumFrames	NumMarkers	Units	OrigDataRate	OrigDataStartFrame	OrigNumFrames
200.0	200.0	6	19	mm	200.0	1171	1338	
Frame#	Time	C7			CLAV			RBAK			LASI			RASI			LPSI			RPSI			LTHI			LKNE			LTIB			LANK			LHEE			LTOE			RTHI			RKNE			RTIB			RANK			RHEE			RTOE			
		X1	Y1	Z1	X2	Y2	Z2	X3	Y3	Z3	X4	Y4	Z4	X5	Y5	Z5	X6	Y6	Z6	X7	Y7	Z7	X8	Y8	Z8	X9	Y9	Z9	X10	Y10	Z10	X11	Y11	Z11	X12	Y12	Z12	X13	Y13	Z13	X14	Y14	Z14	X15	Y15	Z15	X16	Y16	Z16	X17	Y17	Z17	X18	Y18	Z18	X19	Y19	Z19	
1171	5.85	290.98926	1322.2015	-1214.1588	144.54816	1250.499	-1204.3593	315.29083	1238.4338	-1356.6826	182.46298	881.74597	-1076.7369	182.16771	890.46283	-1341.6879	352.09753	941.12463	-1168.8114	351.9191	938.60132	-1238.0043	242.39468	562.15369	-992.84906	257.88589	423.4205	-993.51459	294.77893	224.51744	-960.00769	309.3894	65.53495	-966.6377	324.45361	50.675091	-1025.6678	164.28539	37.428204	-930.41083	243.86877	732.65338	-1407.5902	279.75879	423.17075	-1412.8976	295.75229	336.06146	-1434.9567	305.13943	73.519821	-1430.5823	317.95337	49.020092	-1364.2354	165.76616	40.462543	-1478.0326
1172	5.855	291.14853	1322.108	-1214.0397	144.59627	1250.5165	-1204.2052	315.39032	1238.1599	-1356.4463	181.98303	881.55353	-1076.7722	181.7878	890.49103	-1341.6014	351.66031	941.10101	-1168.6731	351.5488	938.57922	-1237.9456	242.37488	561.96082	-992.86792	258.08624	423.36032	-993.73413	294.80814	224.4247	-960.09937	309.33344	65.518753	-966.5813	324.42764	50.696529	-1025.6741	164.31958	37.395973	-930.37958	243.41869	732.54175	-1407.4666	280.05975	423.22873	-1412.646	296.08673	336.13651	-1434.8167	305.14676	73.591568	-1430.5668	318.00299	48.947121	-1364.3107	165.75366	40.510597	-1478.0543
1173	5.86	291.26627	1322.0194	-1213.9048	144.64909	1250.5796	-1204.1067	315.55789	1237.9912	-1356.2388	181.50533	881.57367	-1076.6935	181.26535	890.57935	-1341.6556	351.25238	941.07147	-1168.6362	351.70505	938.50183	-1238.5325	242.28873	561.81549	-992.93292	258.21906	423.28821	-993.94678	294.79871	224.41203	-960.18811	309.33588	65.532761	-966.68542	324.4324	50.717415	-1025.7239	164.28731	37.404945	-930.41986	243.23586	732.64581	-1407.2235	280.29111	423.25696	-1412.447	296.37192	336.1879	-1434.7058	305.18985	73.653419	-1430.5758	318.00754	48.931152	-1364.3279	165.76562	40.554878	-1478.1128
1174	5.865	291.39917	1321.9916	-1213.7903	144.68581	1250.7339	-1204.1121	315.69284	1237.8406	-1356.0206	181.05309	881.6051	-1076.6528	180.97627	890.55188	-1341.5016	350.78363	941.03717	-1168.5233	351.36383	938.64343	-1238.4714	242.09625	561.78442	-992.9397	258.26364	423.34818	-994.07019	294.72623	224.4653	-960.29504	309.28662	65.551331	-966.71234	324.3681	50.737953	-1025.7893	164.2339	37.433777	-930.46643	242.83768	732.58545	-1407.1825	280.44968	423.22009	-1412.2979	296.60428	336.20404	-1434.5984	305.21933	73.62394	-1430.5625	317.99243	48.961994	-1364.35	165.78117	40.539543	-1478.1696
1175	5.87	291.51846	1321.9662	-1213.6721	144.71603	1250.8962	-1204.0592	315.81635	1237.7683	-1355.791	180.60086	881.66443	-1076.6161	180.60863	890.54248	-1341.4128	350.4165	940.98364	-1168.558	351.04581	938.68152	-1238.5627	241.89526	561.83301	-992.99786	258.27319	423.40036	-994.22363	294.64297	224.57751	-960.34619	309.29376	65.645287	-966.89313	324.2995	50.738892	-1025.8684	164.1593	37.465214	-930.49506	242.46793	732.53339	-1407.1158	280.55142	423.16574	-1412.1425	296.74112	336.18579	-1434.4912	305.22092	73.585785	-1430.5464	317.96848	48.404976	-1365.1355	165.78996	40.495289	-1478.2494
1176	5.875	291.64984	1321.9569	-1213.5208	144.72958	1251.0223	-1204.0228	315.93628	1237.7098	-1355.6321	180.23416	881.76398	-1076.603	180.09756	890.57733	-1341.5071	350.03433	941.02637	-1168.5099	349.99045	938.54254	-1237.8319	241.64034	561.84808	-993.08661	258.23331	423.41501	-994.33307	294.60434	224.59775	-960.44232	309.25565	65.71759	-966.89502	324.16208	50.742882	-1025.8895	164.12283	37.463261	-930.46667	242.09109	732.5376	-1407.0114	280.55884	423.18777	-1412.0171	296.78125	336.20477	-1434.375	305.20563	73.601143	-1430.5361	317.93582	48.36972	-1365.161	165.78735	40.484333	-1478.2972
